<svg xmlns="http://www.w3.org/2000/svg" xmlns:xlink="http://www.w3.org/1999/xlink" width="500" zoomAndPan="magnify" viewBox="0 0 375 118.499997" height="158" preserveAspectRatio="xMidYMid meet" version="1.0"><defs><g/></defs><g fill="#ffffff" fill-opacity="1"><g transform="translate(3.071218, 97.560833)"><g><path d="M 49.636719 -53.136719 L 49.636719 -64.367188 C 49.636719 -64.691406 49.3125 -65.097656 48.742188 -65.097656 L 38.164062 -65.097656 C 21.96875 -65.097656 0 -60.378906 0 -32.550781 C 0 -3.660156 22.214844 0 38.164062 0 L 48.742188 0 C 49.3125 0 49.636719 -0.40625 49.636719 -0.730469 L 49.636719 -40.605469 L 24.65625 -40.605469 L 24.65625 -28.15625 L 37.1875 -28.15625 L 37.1875 -11.878906 C 23.027344 -11.148438 12.53125 -17.089844 12.53125 -32.550781 C 12.53125 -52.648438 29.292969 -53.460938 37.1875 -53.136719 Z M 49.636719 -53.136719 "/></g></g></g><g fill="#ffffff" fill-opacity="1"><g transform="translate(64.26219, 97.560833)"><g><path d="M 44.429688 -1.058594 C 40.359375 -10.089844 35.964844 -19.042969 31.898438 -28.234375 C 38.40625 -30.597656 43.859375 -35.804688 43.859375 -45.730469 C 43.859375 -64.933594 25.550781 -65.097656 21.890625 -65.097656 L 0.8125 -65.097656 C 0.40625 -65.097656 0 -64.691406 0 -64.367188 L 0 -53.300781 L 21.890625 -53.300781 C 23.84375 -53.300781 31.492188 -52.890625 31.492188 -45.730469 C 31.492188 -38.570312 24.574219 -38.246094 21.890625 -38.246094 L 0 -38.246094 L 0 -0.730469 C 0 -0.40625 0.40625 0 0.8125 0 L 11.472656 0 C 11.960938 0 12.367188 -0.40625 12.367188 -0.730469 L 12.367188 -26.285156 L 19.367188 -26.285156 L 31.246094 -0.488281 C 31.328125 -0.242188 31.816406 0 32.0625 0 L 43.695312 0 C 44.347656 0 44.671875 -0.488281 44.429688 -1.058594 Z M 44.429688 -1.058594 "/></g></g></g><g fill="#ffffff" fill-opacity="1"><g transform="translate(120.082753, 97.560833)"><g><path d="M 37.429688 -32.386719 C 37.429688 -35.804688 34.746094 -38.570312 31.328125 -38.570312 C 27.910156 -38.570312 25.226562 -35.804688 25.226562 -32.386719 C 25.226562 -29.050781 27.910156 -26.285156 31.328125 -26.285156 C 34.746094 -26.285156 37.429688 -29.050781 37.429688 -32.386719 Z M 62.65625 -32.628906 C 62.65625 -48.824219 52.160156 -65.097656 31.410156 -65.097656 C 10.335938 -65.097656 0 -48.824219 0 -32.628906 C 0 -16.355469 10.335938 0 31.410156 0 C 52.160156 0 62.65625 -16.355469 62.65625 -32.628906 Z M 50.449219 -32.386719 C 50.449219 -21.890625 44.023438 -11.390625 31.410156 -11.390625 C 18.632812 -11.390625 12.289062 -21.890625 12.289062 -32.386719 C 12.289062 -43.046875 18.632812 -53.625 31.410156 -53.625 C 44.023438 -53.625 50.449219 -43.046875 50.449219 -32.386719 Z M 50.449219 -32.386719 "/></g></g></g><g fill="#ffffff" fill-opacity="1"><g transform="translate(194.862478, 97.560833)"><g><path d="M 48.011719 -65.097656 L 37.429688 -65.097656 C 36.863281 -65.097656 36.535156 -64.691406 36.535156 -64.367188 L 36.535156 -21.726562 C 36.535156 -15.136719 30.515625 -11.960938 24.410156 -11.960938 C 18.390625 -11.960938 13.019531 -15.378906 12.289062 -21.808594 L 12.289062 -53.300781 L 0 -53.300781 L 0 -21.726562 C 0 -8.300781 10.984375 0 24.410156 0 C 38.246094 0 48.824219 -7.972656 48.824219 -21.726562 L 48.824219 -64.367188 C 48.824219 -64.691406 48.417969 -65.097656 48.011719 -65.097656 Z M 48.011719 -65.097656 "/></g></g></g><g fill="#ffffff" fill-opacity="1"><g transform="translate(255.158377, 97.560833)"><g><path d="M 21.890625 -65.097656 L 0.8125 -65.097656 C 0.40625 -65.097656 0 -64.691406 0 -64.367188 L 0 -53.136719 L 21.890625 -53.136719 C 23.355469 -53.136719 31.492188 -52.730469 31.492188 -45.570312 C 31.492188 -38.40625 23.515625 -38.246094 21.890625 -38.246094 L 0 -38.246094 L 0 -0.730469 C 0 -0.40625 0.40625 0 0.8125 0 L 11.390625 0 C 11.960938 0 12.207031 -0.40625 12.207031 -0.730469 L 12.207031 -26.203125 L 21.890625 -26.203125 C 23.433594 -26.203125 43.859375 -26.445312 43.859375 -45.570312 C 43.859375 -64.691406 24.492188 -65.097656 21.890625 -65.097656 Z M 21.890625 -65.097656 "/></g></g></g><g fill="#ffffff" fill-opacity="1"><g transform="translate(310.246623, 97.560833)"><g/></g></g><g fill="#ffffff" fill-opacity="1"><g transform="translate(339.622018, 97.560833)"><g><path d="M 25.386719 -64.367188 C 25.386719 -64.691406 25.144531 -65.097656 24.574219 -65.097656 L 15.214844 -65.097656 L 0.488281 -57.125 C 0 -56.878906 -0.0820312 -56.554688 0.0820312 -56.148438 L 3.660156 -48.578125 C 3.824219 -48.171875 4.3125 -48.011719 4.71875 -48.089844 C 7.40625 -49.066406 10.171875 -50.207031 13.019531 -51.183594 L 13.019531 -0.730469 C 13.019531 -0.40625 13.265625 0 13.832031 0 L 24.574219 0 C 25.144531 0 25.386719 -0.40625 25.386719 -0.730469 Z M 25.386719 -64.367188 "/></g></g></g></svg>